<mxfile host="Electron" modified="2024-02-15T15:44:26.695Z" agent="Mozilla/5.0 (X11; Linux x86_64) AppleWebKit/537.36 (KHTML, like Gecko) draw.io/22.0.3 Chrome/114.0.5735.289 Electron/25.8.4 Safari/537.36" etag="G4eFH7CNs0DdiX7LN4cc" version="22.0.3" type="device">
  <diagram name="Page-1" id="a6VT5Mq5Z-FAtWmLLugj">
    <mxGraphModel dx="1017" dy="760" grid="1" gridSize="10" guides="1" tooltips="1" connect="1" arrows="1" fold="1" page="1" pageScale="1" pageWidth="850" pageHeight="1100" math="0" shadow="0">
      <root>
        <mxCell id="0" />
        <mxCell id="1" parent="0" />
        <mxCell id="FUDOfRZ3PRpV9rrZllbR-1" value="Network" style="rounded=0;whiteSpace=wrap;html=1;" parent="1" vertex="1">
          <mxGeometry x="360" y="370" width="140" height="40" as="geometry" />
        </mxCell>
        <mxCell id="FUDOfRZ3PRpV9rrZllbR-6" style="edgeStyle=orthogonalEdgeStyle;rounded=0;orthogonalLoop=1;jettySize=auto;html=1;exitX=0.5;exitY=1;exitDx=0;exitDy=0;entryX=0.5;entryY=0;entryDx=0;entryDy=0;strokeWidth=1;strokeColor=default;endArrow=classic;endFill=1;startArrow=classic;startFill=1;" parent="1" source="FUDOfRZ3PRpV9rrZllbR-2" target="FUDOfRZ3PRpV9rrZllbR-1" edge="1">
          <mxGeometry relative="1" as="geometry" />
        </mxCell>
        <mxCell id="FUDOfRZ3PRpV9rrZllbR-7" style="edgeStyle=orthogonalEdgeStyle;rounded=0;orthogonalLoop=1;jettySize=auto;html=1;exitX=0.5;exitY=0;exitDx=0;exitDy=0;entryX=0.5;entryY=1;entryDx=0;entryDy=0;startArrow=classic;startFill=1;" parent="1" source="FUDOfRZ3PRpV9rrZllbR-2" target="FUDOfRZ3PRpV9rrZllbR-3" edge="1">
          <mxGeometry relative="1" as="geometry" />
        </mxCell>
        <mxCell id="FUDOfRZ3PRpV9rrZllbR-2" value="Protocol state machine" style="rounded=0;whiteSpace=wrap;html=1;" parent="1" vertex="1">
          <mxGeometry x="360" y="310" width="140" height="40" as="geometry" />
        </mxCell>
        <mxCell id="FUDOfRZ3PRpV9rrZllbR-3" value="User code" style="rounded=0;whiteSpace=wrap;html=1;" parent="1" vertex="1">
          <mxGeometry x="360" y="180" width="140" height="40" as="geometry" />
        </mxCell>
        <mxCell id="FUDOfRZ3PRpV9rrZllbR-8" value="Java/Kotlin/etc" style="text;html=1;strokeColor=none;fillColor=none;align=center;verticalAlign=middle;whiteSpace=wrap;rounded=0;" parent="1" vertex="1">
          <mxGeometry x="540" y="185" width="100" height="30" as="geometry" />
        </mxCell>
        <mxCell id="FUDOfRZ3PRpV9rrZllbR-9" value="Java" style="text;html=1;strokeColor=none;fillColor=none;align=center;verticalAlign=middle;whiteSpace=wrap;rounded=0;" parent="1" vertex="1">
          <mxGeometry x="550" y="345" width="60" height="30" as="geometry" />
        </mxCell>
        <mxCell id="FUDOfRZ3PRpV9rrZllbR-10" value="Async/Blocking" style="text;html=1;strokeColor=none;fillColor=none;align=center;verticalAlign=middle;whiteSpace=wrap;rounded=0;" parent="1" vertex="1">
          <mxGeometry x="240" y="185" width="60" height="30" as="geometry" />
        </mxCell>
        <mxCell id="FUDOfRZ3PRpV9rrZllbR-11" value="Async" style="text;html=1;strokeColor=none;fillColor=none;align=center;verticalAlign=middle;whiteSpace=wrap;rounded=0;" parent="1" vertex="1">
          <mxGeometry x="260" y="345" width="60" height="30" as="geometry" />
        </mxCell>
        <mxCell id="FUDOfRZ3PRpV9rrZllbR-12" value="" style="shape=curlyBracket;whiteSpace=wrap;html=1;rounded=1;flipH=1;labelPosition=right;verticalLabelPosition=middle;align=left;verticalAlign=middle;" parent="1" vertex="1">
          <mxGeometry x="520" y="310" width="20" height="100" as="geometry" />
        </mxCell>
        <mxCell id="FUDOfRZ3PRpV9rrZllbR-13" value="" style="shape=curlyBracket;whiteSpace=wrap;html=1;rounded=1;flipH=1;labelPosition=right;verticalLabelPosition=middle;align=left;verticalAlign=middle;" parent="1" vertex="1">
          <mxGeometry x="520" y="180" width="20" height="40" as="geometry" />
        </mxCell>
        <mxCell id="FUDOfRZ3PRpV9rrZllbR-14" value="" style="shape=curlyBracket;whiteSpace=wrap;html=1;rounded=1;labelPosition=left;verticalLabelPosition=middle;align=right;verticalAlign=middle;" parent="1" vertex="1">
          <mxGeometry x="320" y="310" width="20" height="100" as="geometry" />
        </mxCell>
        <mxCell id="FUDOfRZ3PRpV9rrZllbR-15" value="" style="shape=curlyBracket;whiteSpace=wrap;html=1;rounded=1;labelPosition=left;verticalLabelPosition=middle;align=right;verticalAlign=middle;" parent="1" vertex="1">
          <mxGeometry x="320" y="180" width="20" height="40" as="geometry" />
        </mxCell>
        <mxCell id="FUDOfRZ3PRpV9rrZllbR-16" value="" style="shape=crossbar;whiteSpace=wrap;html=1;rounded=1;" parent="1" vertex="1">
          <mxGeometry x="370" y="240" width="120" height="20" as="geometry" />
        </mxCell>
        <mxCell id="FUDOfRZ3PRpV9rrZllbR-18" value="Low level&lt;br&gt;Async API" style="text;html=1;align=center;verticalAlign=middle;resizable=0;points=[];autosize=1;strokeColor=none;fillColor=none;" parent="1" vertex="1">
          <mxGeometry x="270" y="270" width="80" height="40" as="geometry" />
        </mxCell>
        <mxCell id="FUDOfRZ3PRpV9rrZllbR-19" value="" style="shape=crossbar;whiteSpace=wrap;html=1;rounded=1;" parent="1" vertex="1">
          <mxGeometry x="370" y="280" width="120" height="20" as="geometry" />
        </mxCell>
        <mxCell id="FUDOfRZ3PRpV9rrZllbR-20" value="High level&lt;br&gt;user facing API" style="text;html=1;align=center;verticalAlign=middle;resizable=0;points=[];autosize=1;strokeColor=none;fillColor=none;" parent="1" vertex="1">
          <mxGeometry x="510" y="230" width="100" height="40" as="geometry" />
        </mxCell>
        <mxCell id="JIZt24w9PtPhH7xLPcVa-1" value="&lt;b&gt;Restate&lt;br&gt;Runtime&lt;br&gt;&lt;/b&gt;" style="rounded=1;whiteSpace=wrap;html=1;" vertex="1" parent="1">
          <mxGeometry x="630" y="330" width="160" height="80" as="geometry" />
        </mxCell>
        <mxCell id="JIZt24w9PtPhH7xLPcVa-6" style="edgeStyle=orthogonalEdgeStyle;rounded=0;orthogonalLoop=1;jettySize=auto;html=1;exitX=0.5;exitY=1;exitDx=0;exitDy=0;entryX=0.5;entryY=1;entryDx=0;entryDy=0;startArrow=classic;startFill=1;" edge="1" parent="1" source="FUDOfRZ3PRpV9rrZllbR-1" target="JIZt24w9PtPhH7xLPcVa-1">
          <mxGeometry relative="1" as="geometry">
            <Array as="points">
              <mxPoint x="430" y="450" />
              <mxPoint x="710" y="450" />
            </Array>
          </mxGeometry>
        </mxCell>
        <mxCell id="JIZt24w9PtPhH7xLPcVa-2" value="HTTP" style="ellipse;shape=cloud;whiteSpace=wrap;html=1;" vertex="1" parent="1">
          <mxGeometry x="510" y="410" width="120" height="80" as="geometry" />
        </mxCell>
      </root>
    </mxGraphModel>
  </diagram>
</mxfile>
